<!-- <?xml version="1.0" standalone="no"?>
<!DOCTYPE svg PUBLIC "-//W3C//DTD SVG 20010904//EN"
 "http://www.w3.org/TR/2001/REC-SVG-20010904/DTD/svg10.dtd"> -->
<svg version="1.0" xmlns="http://www.w3.org/2000/svg"
 width="410.000000pt" height="402.000000pt" viewBox="0 0 410.000000 402.000000"
 preserveAspectRatio="xMidYMid meet">

<g transform="translate(0.000000,402.000000) scale(0.100000,-0.100000)"
fill="#100E1D" stroke="none">
<path d="M898 3890 c-161 -34 -274 -87 -403 -191 -205 -165 -335 -439 -335
-706 0 -141 53 -336 124 -457 47 -80 140 -189 212 -247 166 -136 334 -196 572
-206 l142 -6 0 917 0 916 -112 -1 c-69 0 -147 -8 -200 -19z"/>
<path d="M3179 3896 c-230 -64 -419 -318 -486 -652 -24 -122 -24 -376 0 -498
52 -261 183 -484 347 -588 425 -272 890 218 856 902 -12 253 -87 472 -216 635
-134 169 -330 248 -501 201z"/>
<path d="M1460 3375 l0 -325 505 0 505 0 0 325 0 325 -505 0 -505 0 0 -325z"/>
<path d="M1460 2615 l0 -325 505 0 505 0 0 325 0 325 -505 0 -505 0 0 -325z"/>
<path d="M765 2008 c-12 -34 -307 -905 -312 -920 -5 -17 15 -18 326 -18 258 0
331 3 331 13 -1 6 -69 219 -153 472 -116 350 -157 461 -170 463 -9 2 -19 -2
-22 -10z"/>
<path d="M2700 1155 l0 -815 600 0 600 0 0 815 0 815 -600 0 -600 0 0 -815z"/>
<path d="M1470 1515 l0 -325 505 0 505 0 0 325 0 325 -505 0 -505 0 0 -325z"/>
<path d="M1470 755 l0 -325 505 0 505 0 0 325 0 325 -505 0 -505 0 0 -325z"/>
<path d="M403 923 c-41 -97 -234 -693 -228 -703 4 -7 207 -10 606 -10 487 0
601 2 605 13 2 7 -49 177 -115 378 l-120 364 -364 3 -364 2 -20 -47z"/>
</g>
</svg>
